<svg xmlns="http://www.w3.org/2000/svg" xmlns:xlink="http://www.w3.org/1999/xlink" width="1088.758" height="1238.773" viewBox="0 0 1088.758 1238.773">
  <defs>
    <linearGradient id="linear-gradient" x1="0.098" y1="0.892" x2="1.56" gradientUnits="objectBoundingBox">
      <stop offset="0" stop-color="#b3ffe8" stop-opacity="0.58"/>
      <stop offset="1" stop-color="#f2ede4" stop-opacity="0"/>
    </linearGradient>
  </defs>
  <path id="Vector" d="M1797.76,574.069c-7.346-16.163-28.03-77.9-44.983-153.74-13.925-62.512,61.082-116.923,159.894-115.778l56.406.653c90.655,1.05,165.013,48.778,165.776,106.44,3.917,293.424-.268,739.611-41.826,776.938-34.745,31.186-72.514,95.344-98.037,145.192-30.363,59.238-84.466,112.187-158.215,152.6-2.207,1.213-4.414,2.4-6.582,3.537-46.722,24.75-103.685,40.658-164.377,46.665-486.11,48.048-614.726-172.65-617.655-297.153-.045-2.22-.212-4.441-.46-6.664-7.166-71.363,68.43-224.842,430.648-294.455C1846.348,867.623,1844.656,666.022,1797.76,574.069Z" transform="translate(-1047.251 -304.534)" fill="url(#linear-gradient)"/>
</svg>
