<svg xmlns="http://www.w3.org/2000/svg" xmlns:xlink="http://www.w3.org/1999/xlink" width="1542.777" height="1141.621" viewBox="0 0 1542.777 1141.621">
  <defs>
    <linearGradient id="linear-gradient" x1="0.098" y1="0.892" x2="1.56" gradientUnits="objectBoundingBox">
      <stop offset="0" stop-color="#b3ffe8" stop-opacity="0.58"/>
      <stop offset="1" stop-color="#f2ede4" stop-opacity="0"/>
    </linearGradient>
  </defs>
  <path id="Vector" d="M931.4,927.314c18.648-8.6,90.681-33.572,180.084-55.223,73.7-17.794,147.315,59.716,156.678,165.239l5.345,60.237c8.59,96.812-40.752,178.419-110.046,181.937-352.609,17.939-889.9,34.393-939.324-8.216-41.3-35.624-122.6-72.93-185.345-97.835-74.572-29.631-144.159-84.9-200.8-161.72-1.7-2.3-3.368-4.6-4.971-6.859-34.856-48.71-60.188-108.764-74.012-173.265C-351.638,315-100.083,167.367,49.4,158.4c2.666-.152,5.321-.434,7.968-.8,85.082-11,277.957,62.5,401.084,445.859C583.487,992.939,825.861,981.682,931.4,927.314Z" transform="translate(268.301 -156.583)" fill="url(#linear-gradient)"/>
</svg>
